<svg xmlns="http://www.w3.org/2000/svg" id="favicon_safari" viewBox="0 0 16 16">
	<path d="M4.4 9.69C3.5 8.34 2.5 6.66 2.57 5H0v5.25h3.78zM0 11.19v4.75h6.44l-2.75-4.75zm8.72 3.56c-1.1-1.13-2.31-2.34-3.75-4.28l-.4.34 2.96 5.13h4.03l-.5-3.72c-.9 1.06-1.37 1.53-2.34 2.53zM14.87 5c.07 2-1.43 4.22-2.65 5.81l-.35.4.63 4.73h3.44V5zm0 0"/>
	<path d="M8.72 0A5.23 5.23 0 003.5 5.22c0 2.44 3.53 6.44 5.22 8.19 1.72-1.75 5.22-5.75 5.22-8.2A5.23 5.23 0 008.72 0zm3.25 5.75h-1.35c-.06.22-.15.44-.28.63l1 .96-.68.66-1-1c-.13.1-.32.16-.47.19v1.37h-.94V7.2c-.16-.03-.34-.1-.47-.19l-1 1-.69-.66 1-.96c-.12-.2-.21-.41-.28-.63H5.47v-.94H6.8c.07-.25.16-.43.28-.62l-1-.97.7-.66 1 .97.46-.19V1.97h.94v1.37l.47.2 1-.98.68.66-1 .97c.13.18.22.4.29.62h1.34zm0 0"/>
</svg>
