<svg xmlns="http://www.w3.org/2000/svg" id="favicon"
	 viewBox="0 0 512 512" width="512" height="512">
	<path fill="rgb(180, 200, 255)"
		  d="M510 160v350H0V160h127.4v15h303.2v-15z"/>
	<path fill="rgb(90, 150, 255)"
		  d="M510 160v350H279V175h151.6v-15zM241 510h-34.6l-88-152H0v-30h121.4l52.9-46.3 19.8 22.6-48 41.9z"/>
	<path fill="rgb(0, 100, 255)"
		  d="M400 510h-30.2l-25.7-197 29.8-4z"/>
	<path fill="rgb(60, 170, 255)"
		  d="M446 167c0 77.8-112.4 205.5-167 261.5-54.6-56-167-183.6-167-261.5C112 75 187 0 279 0s167 75 167 167z"/>
	<path fill="rgb(57, 120, 255)"
		  d="M446 167c0 77.8-112.4 205.5-167 261.5V0c92 0 167 75 167 167z"/>
	<g>
		<path fill="#fc0"
			  d="M383 183.7v-30h-42.8a62.7 62.7 0 00-8.7-19.9l31-31-21.2-21.2-32 31.9c-4.7-2.6-9.9-4.7-15.3-6V63h-30v44.5a62.5 62.5 0 00-15.4 6l-31.9-32-21.2 21.3 31 31c-4 6-7 12.7-8.7 19.9H175v30h42.8a62.9 62.9 0 008.8 19.8l-31.1 31 21.2 21.3 32-32c4.7 2.7 9.9 4.7 15.3 6v44.6h30v-44.5a62.5 62.5 0 0015.4-6l31.9 31.9 21.2-21.2-31-31c4-6 7-12.7 8.7-20H383z"/>
		<path fill="#f92"
			  d="M340.2 183.7a62.9 62.9 0 01-8.8 19.8l31.1 31-21.2 21.3-32-32c-4.7 2.7-9.9 4.7-15.3 6v44.6h-14.4V63H294v44.5a62.5 62.5 0 0115.4 6l31.9-32 21.2 21.3-31 31c4 6 7 12.7 8.7 19.9H383v30z"/>
	</g>
</svg>
